<mxfile host="app.diagrams.net" modified="2024-01-17T08:54:33.160Z" agent="Mozilla/5.0 (Windows NT 10.0; Win64; x64) AppleWebKit/537.36 (KHTML, like Gecko) Chrome/120.0.0.0 Safari/537.36" etag="ev_Y-G04l8x8BgvMkrFe" version="22.1.20" type="device">
  <diagram id="C5RBs43oDa-KdzZeNtuy" name="Page-1">
    <mxGraphModel dx="1222" dy="717" grid="1" gridSize="10" guides="1" tooltips="1" connect="1" arrows="1" fold="1" page="1" pageScale="1" pageWidth="827" pageHeight="1169" math="0" shadow="0">
      <root>
        <mxCell id="WIyWlLk6GJQsqaUBKTNV-0" />
        <mxCell id="WIyWlLk6GJQsqaUBKTNV-1" parent="WIyWlLk6GJQsqaUBKTNV-0" />
        <mxCell id="_njwRdU0J2kkFa_-ynvX-5" style="edgeStyle=orthogonalEdgeStyle;rounded=0;orthogonalLoop=1;jettySize=auto;html=1;exitX=0.5;exitY=1;exitDx=0;exitDy=0;entryX=0.5;entryY=0;entryDx=0;entryDy=0;" edge="1" parent="WIyWlLk6GJQsqaUBKTNV-1" source="_njwRdU0J2kkFa_-ynvX-0" target="_njwRdU0J2kkFa_-ynvX-7">
          <mxGeometry relative="1" as="geometry">
            <mxPoint x="400" y="130" as="targetPoint" />
          </mxGeometry>
        </mxCell>
        <mxCell id="_njwRdU0J2kkFa_-ynvX-0" value="&lt;p&gt;&lt;font style=&quot;font-size: 14px;&quot;&gt;&lt;b&gt;start&lt;/b&gt;&lt;/font&gt;&lt;/p&gt;" style="ellipse;whiteSpace=wrap;html=1;" vertex="1" parent="WIyWlLk6GJQsqaUBKTNV-1">
          <mxGeometry x="365" y="10" width="70" height="40" as="geometry" />
        </mxCell>
        <mxCell id="_njwRdU0J2kkFa_-ynvX-2" value="&lt;i&gt;main()&lt;/i&gt;&lt;br&gt;&lt;i&gt;assdraft1.cpp&lt;/i&gt;" style="rounded=0;whiteSpace=wrap;html=1;" vertex="1" parent="WIyWlLk6GJQsqaUBKTNV-1">
          <mxGeometry x="350" y="75" width="100" height="40" as="geometry" />
        </mxCell>
        <mxCell id="_njwRdU0J2kkFa_-ynvX-19" style="edgeStyle=orthogonalEdgeStyle;rounded=0;orthogonalLoop=1;jettySize=auto;html=1;exitX=0.5;exitY=1;exitDx=0;exitDy=0;entryX=0.5;entryY=0;entryDx=0;entryDy=0;" edge="1" parent="WIyWlLk6GJQsqaUBKTNV-1" target="_njwRdU0J2kkFa_-ynvX-11">
          <mxGeometry relative="1" as="geometry">
            <mxPoint x="400" y="190" as="sourcePoint" />
            <mxPoint x="65" y="245" as="targetPoint" />
            <Array as="points">
              <mxPoint x="400" y="205" />
              <mxPoint x="68" y="205" />
            </Array>
          </mxGeometry>
        </mxCell>
        <mxCell id="_njwRdU0J2kkFa_-ynvX-36" style="edgeStyle=orthogonalEdgeStyle;rounded=0;orthogonalLoop=1;jettySize=auto;html=1;exitX=0.5;exitY=1;exitDx=0;exitDy=0;entryX=0.75;entryY=0;entryDx=0;entryDy=0;" edge="1" parent="WIyWlLk6GJQsqaUBKTNV-1" target="_njwRdU0J2kkFa_-ynvX-30">
          <mxGeometry relative="1" as="geometry">
            <mxPoint x="798" y="1080" as="targetPoint" />
            <mxPoint x="400" y="190" as="sourcePoint" />
            <Array as="points">
              <mxPoint x="400" y="205" />
              <mxPoint x="798" y="205" />
            </Array>
          </mxGeometry>
        </mxCell>
        <mxCell id="_njwRdU0J2kkFa_-ynvX-37" style="edgeStyle=orthogonalEdgeStyle;rounded=0;orthogonalLoop=1;jettySize=auto;html=1;exitX=0.5;exitY=1;exitDx=0;exitDy=0;entryX=0.5;entryY=0;entryDx=0;entryDy=0;" edge="1" parent="WIyWlLk6GJQsqaUBKTNV-1" source="_njwRdU0J2kkFa_-ynvX-7" target="_njwRdU0J2kkFa_-ynvX-21">
          <mxGeometry relative="1" as="geometry" />
        </mxCell>
        <mxCell id="_njwRdU0J2kkFa_-ynvX-38" style="edgeStyle=orthogonalEdgeStyle;rounded=0;orthogonalLoop=1;jettySize=auto;html=1;exitX=0.5;exitY=1;exitDx=0;exitDy=0;entryX=0.5;entryY=0;entryDx=0;entryDy=0;" edge="1" parent="WIyWlLk6GJQsqaUBKTNV-1" source="_njwRdU0J2kkFa_-ynvX-7" target="_njwRdU0J2kkFa_-ynvX-22">
          <mxGeometry relative="1" as="geometry" />
        </mxCell>
        <mxCell id="_njwRdU0J2kkFa_-ynvX-39" style="edgeStyle=orthogonalEdgeStyle;rounded=0;orthogonalLoop=1;jettySize=auto;html=1;exitX=0.5;exitY=1;exitDx=0;exitDy=0;entryX=0.5;entryY=0;entryDx=0;entryDy=0;" edge="1" parent="WIyWlLk6GJQsqaUBKTNV-1" source="_njwRdU0J2kkFa_-ynvX-7" target="_njwRdU0J2kkFa_-ynvX-23">
          <mxGeometry relative="1" as="geometry" />
        </mxCell>
        <mxCell id="_njwRdU0J2kkFa_-ynvX-40" style="edgeStyle=orthogonalEdgeStyle;rounded=0;orthogonalLoop=1;jettySize=auto;html=1;exitX=0.5;exitY=1;exitDx=0;exitDy=0;entryX=0.5;entryY=0;entryDx=0;entryDy=0;" edge="1" parent="WIyWlLk6GJQsqaUBKTNV-1" source="_njwRdU0J2kkFa_-ynvX-7" target="_njwRdU0J2kkFa_-ynvX-25">
          <mxGeometry relative="1" as="geometry" />
        </mxCell>
        <mxCell id="_njwRdU0J2kkFa_-ynvX-42" style="edgeStyle=orthogonalEdgeStyle;rounded=0;orthogonalLoop=1;jettySize=auto;html=1;exitX=0.5;exitY=1;exitDx=0;exitDy=0;entryX=0.5;entryY=0;entryDx=0;entryDy=0;" edge="1" parent="WIyWlLk6GJQsqaUBKTNV-1" source="_njwRdU0J2kkFa_-ynvX-7" target="_njwRdU0J2kkFa_-ynvX-26">
          <mxGeometry relative="1" as="geometry" />
        </mxCell>
        <mxCell id="_njwRdU0J2kkFa_-ynvX-43" style="edgeStyle=orthogonalEdgeStyle;rounded=0;orthogonalLoop=1;jettySize=auto;html=1;exitX=0.5;exitY=1;exitDx=0;exitDy=0;entryX=0.5;entryY=0;entryDx=0;entryDy=0;" edge="1" parent="WIyWlLk6GJQsqaUBKTNV-1" source="_njwRdU0J2kkFa_-ynvX-7" target="_njwRdU0J2kkFa_-ynvX-28">
          <mxGeometry relative="1" as="geometry" />
        </mxCell>
        <mxCell id="_njwRdU0J2kkFa_-ynvX-7" value="user input:&lt;br&gt;menu choice&lt;br&gt;&lt;i&gt;menuprinter()&lt;/i&gt;" style="shape=parallelogram;perimeter=parallelogramPerimeter;whiteSpace=wrap;html=1;fixedSize=1;" vertex="1" parent="WIyWlLk6GJQsqaUBKTNV-1">
          <mxGeometry x="340" y="140" width="120" height="45" as="geometry" />
        </mxCell>
        <mxCell id="_njwRdU0J2kkFa_-ynvX-49" style="edgeStyle=orthogonalEdgeStyle;rounded=0;orthogonalLoop=1;jettySize=auto;html=1;exitX=0.5;exitY=1;exitDx=0;exitDy=0;entryX=0.086;entryY=0.621;entryDx=0;entryDy=0;entryPerimeter=0;" edge="1" parent="WIyWlLk6GJQsqaUBKTNV-1">
          <mxGeometry relative="1" as="geometry">
            <mxPoint x="347.32000000000005" y="169.83999999999997" as="targetPoint" />
            <mxPoint x="65" y="260" as="sourcePoint" />
            <Array as="points">
              <mxPoint x="65" y="310" />
              <mxPoint x="18" y="310" />
              <mxPoint x="18" y="170" />
            </Array>
          </mxGeometry>
        </mxCell>
        <mxCell id="_njwRdU0J2kkFa_-ynvX-11" value="menu choice 1" style="rounded=1;whiteSpace=wrap;html=1;" vertex="1" parent="WIyWlLk6GJQsqaUBKTNV-1">
          <mxGeometry x="23" y="240" width="90" height="20" as="geometry" />
        </mxCell>
        <mxCell id="_njwRdU0J2kkFa_-ynvX-57" style="edgeStyle=orthogonalEdgeStyle;rounded=0;orthogonalLoop=1;jettySize=auto;html=1;exitX=1;exitY=0.5;exitDx=0;exitDy=0;entryX=0;entryY=0.5;entryDx=0;entryDy=0;" edge="1" parent="WIyWlLk6GJQsqaUBKTNV-1" source="_njwRdU0J2kkFa_-ynvX-12" target="_njwRdU0J2kkFa_-ynvX-15">
          <mxGeometry relative="1" as="geometry" />
        </mxCell>
        <mxCell id="_njwRdU0J2kkFa_-ynvX-58" style="edgeStyle=orthogonalEdgeStyle;rounded=0;orthogonalLoop=1;jettySize=auto;html=1;exitX=0;exitY=0.5;exitDx=0;exitDy=0;entryX=1;entryY=0.5;entryDx=0;entryDy=0;" edge="1" parent="WIyWlLk6GJQsqaUBKTNV-1" source="_njwRdU0J2kkFa_-ynvX-12" target="_njwRdU0J2kkFa_-ynvX-14">
          <mxGeometry relative="1" as="geometry" />
        </mxCell>
        <mxCell id="_njwRdU0J2kkFa_-ynvX-12" value="has config fille&lt;br&gt;been processed?" style="shape=hexagon;perimeter=hexagonPerimeter2;whiteSpace=wrap;html=1;fixedSize=1;" vertex="1" parent="WIyWlLk6GJQsqaUBKTNV-1">
          <mxGeometry x="340" y="290" width="120" height="50" as="geometry" />
        </mxCell>
        <mxCell id="_njwRdU0J2kkFa_-ynvX-46" style="edgeStyle=orthogonalEdgeStyle;rounded=0;orthogonalLoop=1;jettySize=auto;html=1;exitX=0;exitY=0.5;exitDx=0;exitDy=0;entryX=0.126;entryY=0.207;entryDx=0;entryDy=0;entryPerimeter=0;" edge="1" parent="WIyWlLk6GJQsqaUBKTNV-1" source="_njwRdU0J2kkFa_-ynvX-14" target="_njwRdU0J2kkFa_-ynvX-7">
          <mxGeometry relative="1" as="geometry">
            <Array as="points">
              <mxPoint x="140" y="315" />
              <mxPoint x="140" y="340" />
              <mxPoint x="10" y="340" />
              <mxPoint x="10" y="150" />
              <mxPoint x="310" y="150" />
            </Array>
          </mxGeometry>
        </mxCell>
        <mxCell id="_njwRdU0J2kkFa_-ynvX-14" value="no" style="rounded=1;whiteSpace=wrap;html=1;" vertex="1" parent="WIyWlLk6GJQsqaUBKTNV-1">
          <mxGeometry x="260" y="305" width="50" height="20" as="geometry" />
        </mxCell>
        <mxCell id="_njwRdU0J2kkFa_-ynvX-88" style="edgeStyle=orthogonalEdgeStyle;rounded=0;orthogonalLoop=1;jettySize=auto;html=1;exitX=1;exitY=0.5;exitDx=0;exitDy=0;entryX=0;entryY=0.5;entryDx=0;entryDy=0;" edge="1" parent="WIyWlLk6GJQsqaUBKTNV-1" source="_njwRdU0J2kkFa_-ynvX-15" target="_njwRdU0J2kkFa_-ynvX-64">
          <mxGeometry relative="1" as="geometry" />
        </mxCell>
        <mxCell id="_njwRdU0J2kkFa_-ynvX-15" value="yes" style="rounded=1;whiteSpace=wrap;html=1;" vertex="1" parent="WIyWlLk6GJQsqaUBKTNV-1">
          <mxGeometry x="480" y="305" width="50" height="20" as="geometry" />
        </mxCell>
        <mxCell id="_njwRdU0J2kkFa_-ynvX-45" style="edgeStyle=orthogonalEdgeStyle;rounded=0;orthogonalLoop=1;jettySize=auto;html=1;exitX=0.5;exitY=1;exitDx=0;exitDy=0;entryX=0.5;entryY=0;entryDx=0;entryDy=0;" edge="1" parent="WIyWlLk6GJQsqaUBKTNV-1" source="_njwRdU0J2kkFa_-ynvX-21" target="_njwRdU0J2kkFa_-ynvX-12">
          <mxGeometry relative="1" as="geometry" />
        </mxCell>
        <mxCell id="_njwRdU0J2kkFa_-ynvX-21" value="menu choice 2" style="rounded=1;whiteSpace=wrap;html=1;" vertex="1" parent="WIyWlLk6GJQsqaUBKTNV-1">
          <mxGeometry x="120" y="225" width="90" height="20" as="geometry" />
        </mxCell>
        <mxCell id="_njwRdU0J2kkFa_-ynvX-52" style="edgeStyle=orthogonalEdgeStyle;rounded=0;orthogonalLoop=1;jettySize=auto;html=1;exitX=0.5;exitY=1;exitDx=0;exitDy=0;" edge="1" parent="WIyWlLk6GJQsqaUBKTNV-1" source="_njwRdU0J2kkFa_-ynvX-22">
          <mxGeometry relative="1" as="geometry">
            <mxPoint x="400" y="290" as="targetPoint" />
          </mxGeometry>
        </mxCell>
        <mxCell id="_njwRdU0J2kkFa_-ynvX-22" value="menu choice 3" style="rounded=1;whiteSpace=wrap;html=1;" vertex="1" parent="WIyWlLk6GJQsqaUBKTNV-1">
          <mxGeometry x="230" y="225" width="90" height="20" as="geometry" />
        </mxCell>
        <mxCell id="_njwRdU0J2kkFa_-ynvX-53" style="edgeStyle=orthogonalEdgeStyle;rounded=0;orthogonalLoop=1;jettySize=auto;html=1;exitX=0.5;exitY=1;exitDx=0;exitDy=0;entryX=0.5;entryY=0;entryDx=0;entryDy=0;" edge="1" parent="WIyWlLk6GJQsqaUBKTNV-1" source="_njwRdU0J2kkFa_-ynvX-23" target="_njwRdU0J2kkFa_-ynvX-12">
          <mxGeometry relative="1" as="geometry" />
        </mxCell>
        <mxCell id="_njwRdU0J2kkFa_-ynvX-23" value="menu choice 4" style="rounded=1;whiteSpace=wrap;html=1;" vertex="1" parent="WIyWlLk6GJQsqaUBKTNV-1">
          <mxGeometry x="340" y="225" width="90" height="20" as="geometry" />
        </mxCell>
        <mxCell id="_njwRdU0J2kkFa_-ynvX-54" style="edgeStyle=orthogonalEdgeStyle;rounded=0;orthogonalLoop=1;jettySize=auto;html=1;exitX=0.5;exitY=1;exitDx=0;exitDy=0;" edge="1" parent="WIyWlLk6GJQsqaUBKTNV-1" source="_njwRdU0J2kkFa_-ynvX-25">
          <mxGeometry relative="1" as="geometry">
            <mxPoint x="400" y="290" as="targetPoint" />
          </mxGeometry>
        </mxCell>
        <mxCell id="_njwRdU0J2kkFa_-ynvX-25" value="menu choice 5" style="rounded=1;whiteSpace=wrap;html=1;" vertex="1" parent="WIyWlLk6GJQsqaUBKTNV-1">
          <mxGeometry x="450" y="225" width="90" height="20" as="geometry" />
        </mxCell>
        <mxCell id="_njwRdU0J2kkFa_-ynvX-59" style="edgeStyle=orthogonalEdgeStyle;rounded=0;orthogonalLoop=1;jettySize=auto;html=1;exitX=0.5;exitY=1;exitDx=0;exitDy=0;entryX=0.5;entryY=0;entryDx=0;entryDy=0;" edge="1" parent="WIyWlLk6GJQsqaUBKTNV-1" source="_njwRdU0J2kkFa_-ynvX-26" target="_njwRdU0J2kkFa_-ynvX-12">
          <mxGeometry relative="1" as="geometry" />
        </mxCell>
        <mxCell id="_njwRdU0J2kkFa_-ynvX-26" value="menu choice 6" style="rounded=1;whiteSpace=wrap;html=1;" vertex="1" parent="WIyWlLk6GJQsqaUBKTNV-1">
          <mxGeometry x="560" y="225" width="90" height="20" as="geometry" />
        </mxCell>
        <mxCell id="_njwRdU0J2kkFa_-ynvX-60" style="edgeStyle=orthogonalEdgeStyle;rounded=0;orthogonalLoop=1;jettySize=auto;html=1;exitX=0.5;exitY=1;exitDx=0;exitDy=0;entryX=0.5;entryY=0;entryDx=0;entryDy=0;" edge="1" parent="WIyWlLk6GJQsqaUBKTNV-1" source="_njwRdU0J2kkFa_-ynvX-28" target="_njwRdU0J2kkFa_-ynvX-12">
          <mxGeometry relative="1" as="geometry" />
        </mxCell>
        <mxCell id="_njwRdU0J2kkFa_-ynvX-28" value="menu choice 7" style="rounded=1;whiteSpace=wrap;html=1;" vertex="1" parent="WIyWlLk6GJQsqaUBKTNV-1">
          <mxGeometry x="670" y="225" width="90" height="20" as="geometry" />
        </mxCell>
        <mxCell id="_njwRdU0J2kkFa_-ynvX-34" style="edgeStyle=orthogonalEdgeStyle;rounded=0;orthogonalLoop=1;jettySize=auto;html=1;exitX=0;exitY=0.5;exitDx=0;exitDy=0;entryX=1;entryY=0.5;entryDx=0;entryDy=0;" edge="1" parent="WIyWlLk6GJQsqaUBKTNV-1" source="_njwRdU0J2kkFa_-ynvX-30" target="_njwRdU0J2kkFa_-ynvX-33">
          <mxGeometry relative="1" as="geometry" />
        </mxCell>
        <mxCell id="_njwRdU0J2kkFa_-ynvX-30" value="menu choice 8" style="rounded=1;whiteSpace=wrap;html=1;" vertex="1" parent="WIyWlLk6GJQsqaUBKTNV-1">
          <mxGeometry x="730" y="820" width="90" height="20" as="geometry" />
        </mxCell>
        <mxCell id="_njwRdU0J2kkFa_-ynvX-33" value="&lt;p&gt;&lt;span style=&quot;font-size: 14px;&quot;&gt;&lt;b&gt;End&lt;/b&gt;&lt;/span&gt;&lt;/p&gt;" style="ellipse;whiteSpace=wrap;html=1;" vertex="1" parent="WIyWlLk6GJQsqaUBKTNV-1">
          <mxGeometry x="420" y="810" width="70" height="40" as="geometry" />
        </mxCell>
        <mxCell id="_njwRdU0J2kkFa_-ynvX-50" value="input validation,&lt;br&gt;file processing&lt;br&gt;&lt;i&gt;men1()&lt;/i&gt;" style="rounded=0;whiteSpace=wrap;html=1;" vertex="1" parent="WIyWlLk6GJQsqaUBKTNV-1">
          <mxGeometry x="23" y="270" width="97" height="50" as="geometry" />
        </mxCell>
        <mxCell id="_njwRdU0J2kkFa_-ynvX-93" style="edgeStyle=orthogonalEdgeStyle;rounded=0;orthogonalLoop=1;jettySize=auto;html=1;exitX=0.5;exitY=1;exitDx=0;exitDy=0;entryX=0.5;entryY=0;entryDx=0;entryDy=0;" edge="1" parent="WIyWlLk6GJQsqaUBKTNV-1" source="_njwRdU0J2kkFa_-ynvX-62" target="_njwRdU0J2kkFa_-ynvX-66">
          <mxGeometry relative="1" as="geometry" />
        </mxCell>
        <mxCell id="_njwRdU0J2kkFa_-ynvX-62" value="menu choice 2" style="rounded=1;whiteSpace=wrap;html=1;" vertex="1" parent="WIyWlLk6GJQsqaUBKTNV-1">
          <mxGeometry x="120" y="380" width="90" height="20" as="geometry" />
        </mxCell>
        <mxCell id="_njwRdU0J2kkFa_-ynvX-89" style="edgeStyle=orthogonalEdgeStyle;rounded=0;orthogonalLoop=1;jettySize=auto;html=1;exitX=0.5;exitY=1;exitDx=0;exitDy=0;entryX=0.5;entryY=0;entryDx=0;entryDy=0;" edge="1" parent="WIyWlLk6GJQsqaUBKTNV-1" source="_njwRdU0J2kkFa_-ynvX-64" target="_njwRdU0J2kkFa_-ynvX-62">
          <mxGeometry relative="1" as="geometry" />
        </mxCell>
        <mxCell id="_njwRdU0J2kkFa_-ynvX-91" style="edgeStyle=orthogonalEdgeStyle;rounded=0;orthogonalLoop=1;jettySize=auto;html=1;exitX=0.5;exitY=1;exitDx=0;exitDy=0;entryX=0.5;entryY=0;entryDx=0;entryDy=0;" edge="1" parent="WIyWlLk6GJQsqaUBKTNV-1" source="_njwRdU0J2kkFa_-ynvX-64" target="_njwRdU0J2kkFa_-ynvX-71">
          <mxGeometry relative="1" as="geometry" />
        </mxCell>
        <mxCell id="_njwRdU0J2kkFa_-ynvX-92" style="edgeStyle=orthogonalEdgeStyle;rounded=0;orthogonalLoop=1;jettySize=auto;html=1;exitX=0.5;exitY=1;exitDx=0;exitDy=0;entryX=0.5;entryY=0;entryDx=0;entryDy=0;" edge="1" parent="WIyWlLk6GJQsqaUBKTNV-1" source="_njwRdU0J2kkFa_-ynvX-64" target="_njwRdU0J2kkFa_-ynvX-84">
          <mxGeometry relative="1" as="geometry" />
        </mxCell>
        <mxCell id="_njwRdU0J2kkFa_-ynvX-111" style="edgeStyle=orthogonalEdgeStyle;rounded=0;orthogonalLoop=1;jettySize=auto;html=1;exitX=0.5;exitY=1;exitDx=0;exitDy=0;entryX=0.5;entryY=0;entryDx=0;entryDy=0;" edge="1" parent="WIyWlLk6GJQsqaUBKTNV-1" source="_njwRdU0J2kkFa_-ynvX-64" target="_njwRdU0J2kkFa_-ynvX-110">
          <mxGeometry relative="1" as="geometry" />
        </mxCell>
        <mxCell id="_njwRdU0J2kkFa_-ynvX-64" value="get GridX and GridY&lt;br&gt;&lt;i&gt;xyer()&lt;br&gt;converters.h&lt;/i&gt;" style="rounded=0;whiteSpace=wrap;html=1;" vertex="1" parent="WIyWlLk6GJQsqaUBKTNV-1">
          <mxGeometry x="550" y="290" width="120" height="50" as="geometry" />
        </mxCell>
        <mxCell id="_njwRdU0J2kkFa_-ynvX-69" style="edgeStyle=orthogonalEdgeStyle;rounded=0;orthogonalLoop=1;jettySize=auto;html=1;exitX=0.5;exitY=1;exitDx=0;exitDy=0;entryX=0.5;entryY=0;entryDx=0;entryDy=0;" edge="1" parent="WIyWlLk6GJQsqaUBKTNV-1" source="_njwRdU0J2kkFa_-ynvX-66" target="_njwRdU0J2kkFa_-ynvX-68">
          <mxGeometry relative="1" as="geometry" />
        </mxCell>
        <mxCell id="_njwRdU0J2kkFa_-ynvX-66" value="create struct to hold citylocation.txt data&lt;br&gt;&lt;i&gt;men2reader()&lt;/i&gt;" style="rounded=0;whiteSpace=wrap;html=1;" vertex="1" parent="WIyWlLk6GJQsqaUBKTNV-1">
          <mxGeometry x="20" y="440" width="120" height="50" as="geometry" />
        </mxCell>
        <mxCell id="_njwRdU0J2kkFa_-ynvX-70" style="edgeStyle=orthogonalEdgeStyle;rounded=0;orthogonalLoop=1;jettySize=auto;html=1;exitX=0.5;exitY=1;exitDx=0;exitDy=0;" edge="1" parent="WIyWlLk6GJQsqaUBKTNV-1" source="_njwRdU0J2kkFa_-ynvX-68">
          <mxGeometry relative="1" as="geometry">
            <mxPoint x="10" y="340" as="targetPoint" />
            <Array as="points">
              <mxPoint x="100" y="640" />
              <mxPoint x="11" y="640" />
              <mxPoint x="11" y="340" />
            </Array>
          </mxGeometry>
        </mxCell>
        <mxCell id="_njwRdU0J2kkFa_-ynvX-99" style="edgeStyle=orthogonalEdgeStyle;rounded=0;orthogonalLoop=1;jettySize=auto;html=1;exitX=0.5;exitY=1;exitDx=0;exitDy=0;" edge="1" parent="WIyWlLk6GJQsqaUBKTNV-1" source="_njwRdU0J2kkFa_-ynvX-68">
          <mxGeometry relative="1" as="geometry">
            <mxPoint x="99.56521739130437" y="580.0000000000001" as="targetPoint" />
          </mxGeometry>
        </mxCell>
        <mxCell id="_njwRdU0J2kkFa_-ynvX-68" value="print grid&lt;br&gt;&lt;i&gt;men2printer()&lt;/i&gt;" style="rounded=0;whiteSpace=wrap;html=1;" vertex="1" parent="WIyWlLk6GJQsqaUBKTNV-1">
          <mxGeometry x="57.5" y="510" width="85" height="40" as="geometry" />
        </mxCell>
        <mxCell id="_njwRdU0J2kkFa_-ynvX-94" style="edgeStyle=orthogonalEdgeStyle;rounded=0;orthogonalLoop=1;jettySize=auto;html=1;exitX=0.5;exitY=1;exitDx=0;exitDy=0;entryX=0.5;entryY=0;entryDx=0;entryDy=0;" edge="1" parent="WIyWlLk6GJQsqaUBKTNV-1" source="_njwRdU0J2kkFa_-ynvX-71" target="_njwRdU0J2kkFa_-ynvX-74">
          <mxGeometry relative="1" as="geometry" />
        </mxCell>
        <mxCell id="_njwRdU0J2kkFa_-ynvX-71" value="menu choice 3" style="rounded=1;whiteSpace=wrap;html=1;" vertex="1" parent="WIyWlLk6GJQsqaUBKTNV-1">
          <mxGeometry x="230" y="380" width="90" height="20" as="geometry" />
        </mxCell>
        <mxCell id="_njwRdU0J2kkFa_-ynvX-78" style="edgeStyle=orthogonalEdgeStyle;rounded=0;orthogonalLoop=1;jettySize=auto;html=1;exitX=0.5;exitY=1;exitDx=0;exitDy=0;entryX=0.5;entryY=0;entryDx=0;entryDy=0;" edge="1" parent="WIyWlLk6GJQsqaUBKTNV-1" source="_njwRdU0J2kkFa_-ynvX-74" target="_njwRdU0J2kkFa_-ynvX-77">
          <mxGeometry relative="1" as="geometry" />
        </mxCell>
        <mxCell id="_njwRdU0J2kkFa_-ynvX-74" value="create struct to hold cloudcover.txt data&lt;br&gt;&lt;i&gt;men3reader()&lt;/i&gt;" style="rounded=0;whiteSpace=wrap;html=1;" vertex="1" parent="WIyWlLk6GJQsqaUBKTNV-1">
          <mxGeometry x="152.5" y="440" width="120" height="50" as="geometry" />
        </mxCell>
        <mxCell id="_njwRdU0J2kkFa_-ynvX-77" value="print grid&lt;br&gt;&lt;i&gt;men3printer()&lt;/i&gt;" style="rounded=0;whiteSpace=wrap;html=1;" vertex="1" parent="WIyWlLk6GJQsqaUBKTNV-1">
          <mxGeometry x="190" y="510" width="85" height="40" as="geometry" />
        </mxCell>
        <mxCell id="_njwRdU0J2kkFa_-ynvX-81" value="ENTER&lt;br&gt;to return" style="shape=parallelogram;perimeter=parallelogramPerimeter;whiteSpace=wrap;html=1;fixedSize=1;" vertex="1" parent="WIyWlLk6GJQsqaUBKTNV-1">
          <mxGeometry x="55" y="580" width="95" height="40" as="geometry" />
        </mxCell>
        <mxCell id="_njwRdU0J2kkFa_-ynvX-101" style="edgeStyle=orthogonalEdgeStyle;rounded=0;orthogonalLoop=1;jettySize=auto;html=1;exitX=0.5;exitY=1;exitDx=0;exitDy=0;entryX=0.5;entryY=0;entryDx=0;entryDy=0;" edge="1" parent="WIyWlLk6GJQsqaUBKTNV-1" source="_njwRdU0J2kkFa_-ynvX-84" target="_njwRdU0J2kkFa_-ynvX-100">
          <mxGeometry relative="1" as="geometry" />
        </mxCell>
        <mxCell id="_njwRdU0J2kkFa_-ynvX-84" value="menu choice 4" style="rounded=1;whiteSpace=wrap;html=1;" vertex="1" parent="WIyWlLk6GJQsqaUBKTNV-1">
          <mxGeometry x="340" y="380" width="90" height="20" as="geometry" />
        </mxCell>
        <mxCell id="_njwRdU0J2kkFa_-ynvX-103" style="edgeStyle=orthogonalEdgeStyle;rounded=0;orthogonalLoop=1;jettySize=auto;html=1;exitX=0.5;exitY=1;exitDx=0;exitDy=0;entryX=0.5;entryY=0;entryDx=0;entryDy=0;" edge="1" parent="WIyWlLk6GJQsqaUBKTNV-1" source="_njwRdU0J2kkFa_-ynvX-100" target="_njwRdU0J2kkFa_-ynvX-102">
          <mxGeometry relative="1" as="geometry" />
        </mxCell>
        <mxCell id="_njwRdU0J2kkFa_-ynvX-100" value="create struct to hold cloudcover.txt data&lt;br&gt;&lt;i&gt;men3reader()&lt;/i&gt;" style="rounded=0;whiteSpace=wrap;html=1;" vertex="1" parent="WIyWlLk6GJQsqaUBKTNV-1">
          <mxGeometry x="290" y="440" width="120" height="50" as="geometry" />
        </mxCell>
        <mxCell id="_njwRdU0J2kkFa_-ynvX-105" style="edgeStyle=orthogonalEdgeStyle;rounded=0;orthogonalLoop=1;jettySize=auto;html=1;exitX=0.5;exitY=1;exitDx=0;exitDy=0;entryX=0.5;entryY=0;entryDx=0;entryDy=0;" edge="1" parent="WIyWlLk6GJQsqaUBKTNV-1" source="_njwRdU0J2kkFa_-ynvX-102" target="_njwRdU0J2kkFa_-ynvX-104">
          <mxGeometry relative="1" as="geometry" />
        </mxCell>
        <mxCell id="_njwRdU0J2kkFa_-ynvX-102" value="convert to LMH&lt;br&gt;lmher()&lt;br&gt;&lt;i&gt;converters.h&lt;/i&gt;" style="rounded=0;whiteSpace=wrap;html=1;" vertex="1" parent="WIyWlLk6GJQsqaUBKTNV-1">
          <mxGeometry x="320" y="510" width="100" height="50" as="geometry" />
        </mxCell>
        <mxCell id="_njwRdU0J2kkFa_-ynvX-109" style="edgeStyle=orthogonalEdgeStyle;rounded=0;orthogonalLoop=1;jettySize=auto;html=1;exitX=0;exitY=0.5;exitDx=0;exitDy=0;" edge="1" parent="WIyWlLk6GJQsqaUBKTNV-1" source="_njwRdU0J2kkFa_-ynvX-104">
          <mxGeometry relative="1" as="geometry">
            <mxPoint x="150" y="600.2173913043479" as="targetPoint" />
          </mxGeometry>
        </mxCell>
        <mxCell id="_njwRdU0J2kkFa_-ynvX-104" value="print grid&lt;br&gt;&lt;i&gt;men3printer()&lt;/i&gt;" style="rounded=0;whiteSpace=wrap;html=1;" vertex="1" parent="WIyWlLk6GJQsqaUBKTNV-1">
          <mxGeometry x="327.5" y="580" width="85" height="40" as="geometry" />
        </mxCell>
        <mxCell id="_njwRdU0J2kkFa_-ynvX-108" style="edgeStyle=orthogonalEdgeStyle;rounded=0;orthogonalLoop=1;jettySize=auto;html=1;exitX=0.5;exitY=1;exitDx=0;exitDy=0;entryX=1;entryY=0.5;entryDx=0;entryDy=0;entryPerimeter=0;" edge="1" parent="WIyWlLk6GJQsqaUBKTNV-1" source="_njwRdU0J2kkFa_-ynvX-77" target="_njwRdU0J2kkFa_-ynvX-81">
          <mxGeometry relative="1" as="geometry" />
        </mxCell>
        <mxCell id="_njwRdU0J2kkFa_-ynvX-110" value="menu choice 5" style="rounded=1;whiteSpace=wrap;html=1;" vertex="1" parent="WIyWlLk6GJQsqaUBKTNV-1">
          <mxGeometry x="450" y="380" width="90" height="20" as="geometry" />
        </mxCell>
        <mxCell id="_njwRdU0J2kkFa_-ynvX-116" style="edgeStyle=orthogonalEdgeStyle;rounded=0;orthogonalLoop=1;jettySize=auto;html=1;exitX=0.5;exitY=1;exitDx=0;exitDy=0;entryX=0.5;entryY=0;entryDx=0;entryDy=0;" edge="1" parent="WIyWlLk6GJQsqaUBKTNV-1" source="_njwRdU0J2kkFa_-ynvX-112" target="_njwRdU0J2kkFa_-ynvX-114">
          <mxGeometry relative="1" as="geometry" />
        </mxCell>
        <mxCell id="_njwRdU0J2kkFa_-ynvX-112" value="create struct to hold pressure.txt data&lt;br&gt;&lt;i&gt;men3reader()&lt;/i&gt;" style="rounded=0;whiteSpace=wrap;html=1;" vertex="1" parent="WIyWlLk6GJQsqaUBKTNV-1">
          <mxGeometry x="420" y="440" width="120" height="50" as="geometry" />
        </mxCell>
        <mxCell id="_njwRdU0J2kkFa_-ynvX-113" style="edgeStyle=orthogonalEdgeStyle;rounded=0;orthogonalLoop=1;jettySize=auto;html=1;exitX=0.5;exitY=1;exitDx=0;exitDy=0;entryX=0.458;entryY=-0.042;entryDx=0;entryDy=0;entryPerimeter=0;" edge="1" parent="WIyWlLk6GJQsqaUBKTNV-1" source="_njwRdU0J2kkFa_-ynvX-110" target="_njwRdU0J2kkFa_-ynvX-112">
          <mxGeometry relative="1" as="geometry" />
        </mxCell>
        <mxCell id="_njwRdU0J2kkFa_-ynvX-117" style="edgeStyle=orthogonalEdgeStyle;rounded=0;orthogonalLoop=1;jettySize=auto;html=1;exitX=0.5;exitY=1;exitDx=0;exitDy=0;entryX=1;entryY=0.5;entryDx=0;entryDy=0;" edge="1" parent="WIyWlLk6GJQsqaUBKTNV-1" source="_njwRdU0J2kkFa_-ynvX-114" target="_njwRdU0J2kkFa_-ynvX-104">
          <mxGeometry relative="1" as="geometry" />
        </mxCell>
        <mxCell id="_njwRdU0J2kkFa_-ynvX-114" value="print grid&lt;br&gt;&lt;i&gt;men3printer()&lt;/i&gt;" style="rounded=0;whiteSpace=wrap;html=1;" vertex="1" parent="WIyWlLk6GJQsqaUBKTNV-1">
          <mxGeometry x="452.5" y="510" width="85" height="40" as="geometry" />
        </mxCell>
        <mxCell id="_njwRdU0J2kkFa_-ynvX-118" value="menu choice 6" style="rounded=1;whiteSpace=wrap;html=1;" vertex="1" parent="WIyWlLk6GJQsqaUBKTNV-1">
          <mxGeometry x="560" y="380" width="90" height="20" as="geometry" />
        </mxCell>
        <mxCell id="_njwRdU0J2kkFa_-ynvX-119" style="edgeStyle=orthogonalEdgeStyle;rounded=0;orthogonalLoop=1;jettySize=auto;html=1;exitX=0.5;exitY=1;exitDx=0;exitDy=0;entryX=0.565;entryY=0.054;entryDx=0;entryDy=0;entryPerimeter=0;" edge="1" parent="WIyWlLk6GJQsqaUBKTNV-1" source="_njwRdU0J2kkFa_-ynvX-64" target="_njwRdU0J2kkFa_-ynvX-118">
          <mxGeometry relative="1" as="geometry" />
        </mxCell>
        <mxCell id="_njwRdU0J2kkFa_-ynvX-124" style="edgeStyle=orthogonalEdgeStyle;rounded=0;orthogonalLoop=1;jettySize=auto;html=1;exitX=0.25;exitY=1;exitDx=0;exitDy=0;entryX=0.25;entryY=0;entryDx=0;entryDy=0;" edge="1" parent="WIyWlLk6GJQsqaUBKTNV-1" source="_njwRdU0J2kkFa_-ynvX-120" target="_njwRdU0J2kkFa_-ynvX-123">
          <mxGeometry relative="1" as="geometry" />
        </mxCell>
        <mxCell id="_njwRdU0J2kkFa_-ynvX-120" value="create struct to hold pressure.txt data&lt;br&gt;&lt;i&gt;men3reader()&lt;/i&gt;" style="rounded=0;whiteSpace=wrap;html=1;" vertex="1" parent="WIyWlLk6GJQsqaUBKTNV-1">
          <mxGeometry x="550" y="440" width="120" height="50" as="geometry" />
        </mxCell>
        <mxCell id="_njwRdU0J2kkFa_-ynvX-122" style="edgeStyle=orthogonalEdgeStyle;rounded=0;orthogonalLoop=1;jettySize=auto;html=1;exitX=0.25;exitY=1;exitDx=0;exitDy=0;entryX=0.315;entryY=-0.009;entryDx=0;entryDy=0;entryPerimeter=0;" edge="1" parent="WIyWlLk6GJQsqaUBKTNV-1" source="_njwRdU0J2kkFa_-ynvX-118" target="_njwRdU0J2kkFa_-ynvX-120">
          <mxGeometry relative="1" as="geometry" />
        </mxCell>
        <mxCell id="_njwRdU0J2kkFa_-ynvX-125" style="edgeStyle=orthogonalEdgeStyle;rounded=0;orthogonalLoop=1;jettySize=auto;html=1;exitX=0.25;exitY=1;exitDx=0;exitDy=0;entryX=1;entryY=0.5;entryDx=0;entryDy=0;" edge="1" parent="WIyWlLk6GJQsqaUBKTNV-1" source="_njwRdU0J2kkFa_-ynvX-123" target="_njwRdU0J2kkFa_-ynvX-104">
          <mxGeometry relative="1" as="geometry" />
        </mxCell>
        <mxCell id="_njwRdU0J2kkFa_-ynvX-123" value="convert to LMH&lt;br&gt;lmher()&lt;br&gt;&lt;i&gt;converters.h&lt;/i&gt;" style="rounded=0;whiteSpace=wrap;html=1;" vertex="1" parent="WIyWlLk6GJQsqaUBKTNV-1">
          <mxGeometry x="555" y="510" width="100" height="50" as="geometry" />
        </mxCell>
        <mxCell id="_njwRdU0J2kkFa_-ynvX-126" value="menu choice 7" style="rounded=1;whiteSpace=wrap;html=1;" vertex="1" parent="WIyWlLk6GJQsqaUBKTNV-1">
          <mxGeometry x="670" y="380" width="90" height="20" as="geometry" />
        </mxCell>
        <mxCell id="_njwRdU0J2kkFa_-ynvX-127" style="edgeStyle=orthogonalEdgeStyle;rounded=0;orthogonalLoop=1;jettySize=auto;html=1;exitX=0.5;exitY=1;exitDx=0;exitDy=0;entryX=0.427;entryY=-0.111;entryDx=0;entryDy=0;entryPerimeter=0;" edge="1" parent="WIyWlLk6GJQsqaUBKTNV-1" source="_njwRdU0J2kkFa_-ynvX-64" target="_njwRdU0J2kkFa_-ynvX-126">
          <mxGeometry relative="1" as="geometry" />
        </mxCell>
        <mxCell id="_njwRdU0J2kkFa_-ynvX-128" value="create structs for&lt;br&gt;citylocation.txt&lt;br&gt;cloudcover.txt&lt;br&gt;pressure.txt&lt;br&gt;&lt;i&gt;men2reader()&lt;/i&gt;&lt;br&gt;&lt;i&gt;men3reader()&lt;/i&gt;" style="rounded=0;whiteSpace=wrap;html=1;" vertex="1" parent="WIyWlLk6GJQsqaUBKTNV-1">
          <mxGeometry x="680" y="440" width="100" height="100" as="geometry" />
        </mxCell>
        <mxCell id="_njwRdU0J2kkFa_-ynvX-136" style="edgeStyle=orthogonalEdgeStyle;rounded=0;orthogonalLoop=1;jettySize=auto;html=1;exitX=0.5;exitY=1;exitDx=0;exitDy=0;entryX=0.384;entryY=-0.006;entryDx=0;entryDy=0;entryPerimeter=0;" edge="1" parent="WIyWlLk6GJQsqaUBKTNV-1" source="_njwRdU0J2kkFa_-ynvX-126" target="_njwRdU0J2kkFa_-ynvX-128">
          <mxGeometry relative="1" as="geometry" />
        </mxCell>
        <mxCell id="_njwRdU0J2kkFa_-ynvX-142" style="edgeStyle=orthogonalEdgeStyle;rounded=0;orthogonalLoop=1;jettySize=auto;html=1;exitX=0;exitY=0.5;exitDx=0;exitDy=0;" edge="1" parent="WIyWlLk6GJQsqaUBKTNV-1" source="_njwRdU0J2kkFa_-ynvX-137">
          <mxGeometry relative="1" as="geometry">
            <mxPoint x="150" y="600" as="targetPoint" />
            <Array as="points">
              <mxPoint x="210" y="675" />
              <mxPoint x="210" y="601" />
              <mxPoint x="150" y="601" />
            </Array>
          </mxGeometry>
        </mxCell>
        <mxCell id="_njwRdU0J2kkFa_-ynvX-137" value="calc pressure of cities&lt;br&gt;calc cloud cover of cities&lt;br&gt;calc surrounding coords&lt;br&gt;calc surrounding pressure&lt;br&gt;calc surrounding cloud cover&lt;br&gt;calc count of surr and city coords&lt;br&gt;sum total pressure&lt;br&gt;sum total cloud cover&lt;br&gt;calc average&lt;br&gt;convert average to LMH&lt;br&gt;calc probability of rain&lt;br&gt;print rain graphic" style="rounded=0;whiteSpace=wrap;html=1;" vertex="1" parent="WIyWlLk6GJQsqaUBKTNV-1">
          <mxGeometry x="596" y="580" width="190" height="190" as="geometry" />
        </mxCell>
        <mxCell id="_njwRdU0J2kkFa_-ynvX-138" style="edgeStyle=orthogonalEdgeStyle;rounded=0;orthogonalLoop=1;jettySize=auto;html=1;exitX=0.5;exitY=1;exitDx=0;exitDy=0;entryX=0.645;entryY=0.009;entryDx=0;entryDy=0;entryPerimeter=0;" edge="1" parent="WIyWlLk6GJQsqaUBKTNV-1" source="_njwRdU0J2kkFa_-ynvX-128" target="_njwRdU0J2kkFa_-ynvX-137">
          <mxGeometry relative="1" as="geometry" />
        </mxCell>
        <mxCell id="_njwRdU0J2kkFa_-ynvX-141" value="All structs declared&lt;br&gt;in constructors.h" style="shape=cylinder3;whiteSpace=wrap;html=1;boundedLbl=1;backgroundOutline=1;size=15;" vertex="1" parent="WIyWlLk6GJQsqaUBKTNV-1">
          <mxGeometry x="557.5" y="30" width="122.5" height="110" as="geometry" />
        </mxCell>
      </root>
    </mxGraphModel>
  </diagram>
</mxfile>
